<?xml version="1.0" encoding="UTF-8"?>
<svg version="1.1" xmlns="http://www.w3.org/2000/svg" width="1024" height="1024">
<path d="M0 0 C337.92 0 675.84 0 1024 0 C1024 337.92 1024 675.84 1024 1024 C686.08 1024 348.16 1024 0 1024 C0 686.08 0 348.16 0 0 Z " fill="#FEFDFA" transform="translate(0,0)"/>
<path d="M0 0 C2.45652322 7.66435245 2.39751458 15.26050864 2.375 23.25 C2.37418427 24.33580353 2.37418427 24.33580353 2.37335205 25.44354248 C2.19657109 77.01974279 -15.00370129 123.9513187 -51.53515625 160.5390625 C-77.11322714 184.84401674 -123.40660315 212 -160 212 C-154.51016257 181.25691039 -135.45040742 152.47381796 -117 128 C-116.30729004 127.07767578 -116.30729004 127.07767578 -115.60058594 126.13671875 C-107.45443568 115.32313886 -98.85595624 104.90519477 -89.98486328 94.68188477 C-87.82953663 92.18865576 -85.83078574 89.74617861 -84 87 C-96.40296288 96.23297485 -108.67619817 105.44082787 -120 116 C-120.73992187 116.68578125 -121.47984375 117.3715625 -122.2421875 118.078125 C-128.36595192 123.96216911 -133.54841646 130.45160951 -138.64892578 137.21777344 C-139.90194825 138.87065816 -141.18231302 140.50271798 -142.46484375 142.1328125 C-158.4402818 163.2089982 -169.38700661 188.96454488 -174 215 C-174.19078125 216.07378906 -174.3815625 217.14757812 -174.578125 218.25390625 C-177.30798465 235.39352506 -177.15043572 252.69294868 -177 270 C-175.70191406 270.11988281 -174.40382813 270.23976563 -173.06640625 270.36328125 C-147.18520664 273.26031727 -121.6514851 285.1532223 -102 302 C-101.46036621 302.46132324 -100.92073242 302.92264648 -100.36474609 303.39794922 C-82.75985998 318.63900131 -69.61370817 336.82522019 -60 358 C-59.29230469 359.546875 -59.29230469 359.546875 -58.5703125 361.125 C-55.7106435 367.945577 -53.91790137 374.93936067 -52.25 382.125 C-52.03899658 383.03137207 -51.82799316 383.93774414 -51.6105957 384.87158203 C-49.13903721 396.08233607 -48.8134418 407.2047645 -48.81469727 418.64208984 C-48.81251038 420.86445277 -48.79428169 423.08631799 -48.77539062 425.30859375 C-48.74067464 434.05848159 -49.33363174 442.37885333 -51 451 C-51.13011475 451.71526855 -51.26022949 452.43053711 -51.39428711 453.16748047 C-58.5941651 490.48171578 -84.26140803 522.80519309 -115 544 C-130.93901338 554.29293771 -148.43797273 561.22556094 -167 565 C-168.06758545 565.22429687 -168.06758545 565.22429687 -169.15673828 565.453125 C-206.55996117 573.08006212 -245.67476667 565.60444511 -277.8125 545.0078125 C-286.59083654 539.10472426 -294.44376497 532.38523112 -302 525 C-302.92167969 524.14019531 -303.84335937 523.28039062 -304.79296875 522.39453125 C-324.85346168 503.23944844 -337.86236671 477.87303665 -344 451 C-344.16516113 450.28602051 -344.33032227 449.57204102 -344.50048828 448.83642578 C-348.99039751 428.43914425 -349.30721998 405.24983112 -344 385 C-343.71793701 383.86256348 -343.71793701 383.86256348 -343.43017578 382.70214844 C-337.0186706 357.33156229 -324.55203166 335.26091349 -307 316 C-306.14921875 315.06542969 -305.2984375 314.13085938 -304.421875 313.16796875 C-280.94254996 288.59903432 -246.89832277 272.10271534 -213 269 C-210.66681127 268.9740232 -208.33311498 268.96807927 -206 269 C-210.82681571 220.1824492 -228.47946751 177.3885796 -265.91015625 144.5078125 C-270.16615392 141.05351351 -274.53503958 137.7647737 -278.9375 134.5 C-279.77925781 133.87561035 -280.62101562 133.2512207 -281.48828125 132.60791016 C-282.28492188 132.0257373 -283.0815625 131.44356445 -283.90234375 130.84375 C-284.61898193 130.31974609 -285.33562012 129.79574219 -286.07397461 129.25585938 C-288.07793472 127.83331434 -288.07793472 127.83331434 -291 127 C-290.55197021 127.44279297 -290.10394043 127.88558594 -289.64233398 128.34179688 C-287.57129904 130.39176683 -285.50439303 132.44585433 -283.4375 134.5 C-282.73302734 135.19609375 -282.02855469 135.8921875 -281.30273438 136.609375 C-276.65274239 141.23793845 -272.26704805 146.01821978 -268 151 C-267.05054158 152.08296361 -266.10007489 153.16504437 -265.1484375 154.24609375 C-219 207.14816176 -219 207.14816176 -219 223 C-257.15171077 223.68399481 -297.74525867 206.63328598 -325.04003906 180.30688477 C-332.73503924 172.71550578 -339.6899536 164.77196687 -346 156 C-346.43006348 155.40896484 -346.86012695 154.81792969 -347.30322266 154.20898438 C-365.97336352 128.2948567 -378.09769152 92.11764068 -377 60 C-375.06179183 58.06179183 -371.50810039 58.76040164 -368.875 58.75 C-331.47314123 58.77009124 -288.74422437 70.27184465 -260 95 C-259.14792969 95.72703125 -258.29585938 96.4540625 -257.41796875 97.203125 C-254.89471103 99.42018094 -252.43882449 101.69056652 -250 104 C-249.17757812 104.76957031 -248.35515625 105.53914063 -247.5078125 106.33203125 C-225.32697203 127.71823101 -212.14907171 155.72932594 -202.5625 184.5625 C-202.30501984 185.33672302 -202.04753967 186.11094604 -201.78225708 186.90863037 C-198.82486056 195.85949873 -196.10586512 204.8031614 -194 214 C-189.00432926 197.40529009 -186.87342988 180.34681022 -184.79397583 163.17651367 C-179.7584353 121.69436906 -166.88139652 87.39914281 -139 56 C-138.41992188 55.34644531 -137.83984375 54.69289063 -137.2421875 54.01953125 C-127.20601322 43.40337705 -114.53665697 35.3153836 -102 28 C-101.08613525 27.46463623 -101.08613525 27.46463623 -100.15380859 26.91845703 C-89.57525327 20.80340292 -78.43484257 16.25793345 -67 12 C-66.33500488 11.75121094 -65.67000977 11.50242188 -64.98486328 11.24609375 C-43.97087612 3.50613531 -22.36060641 -0.48727714 0 0 Z " fill="#115A3E" transform="translate(697,225)"/>
<path d="M0 0 C0.99 0.33 1.98 0.66 3 1 C3 1.99 3 2.98 3 4 C9.41758219 11.53065877 18.75481135 16.69874564 27 22 C26.34 22.33 25.68 22.66 25 23 C14.66339086 17.70607691 5.19217716 10.08485536 -2 1 C-1.34 0.67 -0.68 0.34 0 0 Z " fill="#0E482B" transform="translate(373,402)"/>
<path d="M0 0 C4.67105792 1.55701931 8.08705685 4.08447373 12 7 C11.67 7.99 11.34 8.98 11 10 C7.81326038 8.59698853 5.67778594 6.92234929 3.25 4.4375 C2.63640625 3.81746094 2.0228125 3.19742187 1.390625 2.55859375 C0 1 0 1 0 0 Z " fill="#E6EFEB" transform="translate(404,350)"/>
<path d="M0 0 C1.94921875 0.85546875 1.94921875 0.85546875 4 2 C5.2652614 5.60112861 4.9392247 8.34745949 4 12 C1.57869669 9.57869669 1.47159496 8.19888623 0.875 4.875 C0.70742188 3.96492188 0.53984375 3.05484375 0.3671875 2.1171875 C0.24601562 1.41851562 0.12484375 0.71984375 0 0 Z " fill="#ECF3EE" transform="translate(500,429)"/>
<path d="M0 0 C0.61875 0.495 1.2375 0.99 1.875 1.5 C3.83880904 3.19222773 3.83880904 3.19222773 6 3 C6.66 5.97 7.32 8.94 8 12 C4.72257902 8.89973691 2.06895163 6.02901106 0 2 C0 1.34 0 0.68 0 0 Z " fill="#0C4B2B" transform="translate(343,367)"/>
<path d="M0 0 C0.95465783 2.16967689 1.14401212 3.56328793 0.3984375 5.82421875 C-0.35870385 7.5684743 -1.17609198 9.28627131 -2 11 C-1.34 11.33 -0.68 11.66 0 12 C-1.32 12.33 -2.64 12.66 -4 13 C-3.71517632 11.58194169 -3.42181856 10.16559621 -3.125 8.75 C-2.96257813 7.96109375 -2.80015625 7.1721875 -2.6328125 6.359375 C-2.00849925 4.03168856 -1.15161458 2.10968048 0 0 Z " fill="#0B4629" transform="translate(542,421)"/>
<path d="M0 0 C4.82675589 2.41337795 7.69984002 5.86062408 11 10 C8.06120516 8.64763423 5.70767089 7.10057341 3.25 5 C2.63640625 4.484375 2.0228125 3.96875 1.390625 3.4375 C0 2 0 2 0 0 Z " fill="#1E5237" transform="translate(597,530)"/>
<path d="M0 0 C1.2380014 3.57644848 0.74926071 6.33694766 0 10 C-0.66 10 -1.32 10 -2 10 C-1.85950482 8.52031676 -1.71245174 7.04125484 -1.5625 5.5625 C-1.48128906 4.73878906 -1.40007812 3.91507813 -1.31640625 3.06640625 C-1 1 -1 1 0 0 Z " fill="#104E30" transform="translate(356,601)"/>
<path d="M0 0 C2.64 0 5.28 0 8 0 C8 0.99 8 1.98 8 3 C5.69 3 3.38 3 1 3 C0.67 2.01 0.34 1.02 0 0 Z " fill="#1A5E43" transform="translate(468,445)"/>
<path d="M0 0 C0.33 0 0.66 0 1 0 C1.6875 3.3125 1.6875 3.3125 2 7 C0.5625 8.9375 0.5625 8.9375 -1 10 C-1.125 2.25 -1.125 2.25 0 0 Z " fill="#144C30" transform="translate(510,411)"/>
<path d="M0 0 C0.99 0.33 1.98 0.66 3 1 C1.95125002 3.62187494 1.35068687 4.79371361 -1.125 6.25 C-1.74375 6.4975 -2.3625 6.745 -3 7 C-1.125 2.25 -1.125 2.25 0 0 Z " fill="#0C4C2F" transform="translate(539,305)"/>
</svg>
